<svg xmlns="http://www.w3.org/2000/svg" viewBox="108.6 188.7 394.8 394.8"><path d="M163.9 544.1h-32.6c-7.9 0-13.8-5.9-13.8-13.8V396c0-15.8 12.8-29.6 29.6-29.6s29.6 12.8 29.6 29.6v134.2c1 7.9-4.9 13.9-12.8 13.9zm-25.7-19.8h19.7V396c0-4.9-3.9-9.9-9.9-9.9s-9.9 3.9-9.9 9.9v128.3zm104.6 19.8h-32.6c-7.9 0-13.8-5.9-13.8-13.8V307.2c0-15.8 12.8-29.6 29.6-29.6s29.6 12.8 29.6 29.6v223.1c1 7.8-4.9 13.8-12.8 13.8zm-25.6-19.8h19.7V307.2c0-4.9-3.9-9.9-9.9-9.9s-9.9 3.9-9.9 9.9v217.1zm104.6 19.8h-32.6c-7.9 0-13.8-5.9-13.8-13.8v-312c0-15.8 12.8-29.6 29.6-29.6s29.6 12.8 29.6 29.6v311.9c1 7.9-4.9 13.9-12.8 13.9zm-25.7-19.8h19.7v-306c0-4.9-3.9-9.9-9.9-9.9s-9.9 3.9-9.9 9.9v306zm104.7 19.8h-32.6c-7.9 0-13.8-5.9-13.8-13.8V346.6c0-15.8 12.8-29.6 29.6-29.6s29.6 12.8 29.6 29.6v183.6c1 7.9-4.9 13.9-12.8 13.9zm-25.7-19.8h19.7V346.6c0-4.9-3.9-9.9-9.9-9.9s-9.9 3.9-9.9 9.9v177.7zm104.6 19.8h-32.6c-7.9 0-13.8-5.9-13.8-13.8V277.5c0-15.8 12.8-29.6 29.6-29.6s29.6 12.8 29.6 29.6v252.7c1 7.9-4.9 13.9-12.8 13.9zm-25.6-19.8h19.7V277.5c0-4.9-3.9-9.9-9.9-9.9s-9.9 3.9-9.9 9.9v246.8zm39.4 59.2h-375c-5.9 0-9.9-3.9-9.9-9.9s3.9-9.9 9.9-9.9h375.1c5.9 0 9.9 3.9 9.9 9.9s-4 9.9-10 9.9z"/></svg>