<svg xmlns="http://www.w3.org/2000/svg" viewBox="0 0 40.552 40"><path d="M31.5 40c-1.93 0-3.5-1.57-3.5-3.5s1.57-3.5 3.5-3.5 3.5 1.57 3.5 3.5-1.57 3.5-3.5 3.5zm0-5c-.827 0-1.5.673-1.5 1.5s.673 1.5 1.5 1.5 1.5-.673 1.5-1.5-.673-1.5-1.5-1.5zm-17 5c-1.93 0-3.5-1.57-3.5-3.5s1.57-3.5 3.5-3.5 3.5 1.57 3.5 3.5-1.57 3.5-3.5 3.5zm0-5c-.827 0-1.5.673-1.5 1.5s.673 1.5 1.5 1.5 1.5-.673 1.5-1.5-.673-1.5-1.5-1.5zM40.49 9.1c-.01.04-.02.07-.03.1l-4.95 14.86A2.526 2.526 0 0 1 33.04 26h-21.1l.56 3.58c.04.24.25.42.5.42h23c.55 0 1 .45 1 1s-.45 1-1 1H13c-1.24 0-2.27-.89-2.47-2.1L6.22 2.47A.55.55 0 0 0 5.67 2H1c-.55 0-1-.45-1-1s.45-1 1-1h4.67C6.93 0 8 .91 8.2 2.15L8.8 6h6.75c.55 0 1 .45 1 1s-.45 1-1 1H9.12l2.51 16h21.41c.26 0 .48-.18.53-.43l.03-.1 4.94-14.84c.03-.2-.05-.35-.11-.42A.533.533 0 0 0 38 8h-6.45c-.55 0-1-.45-1-1s.45-1 1-1H38c.78 0 1.5.35 1.99.95.49.61.67 1.39.5 2.15z"/><path d="M35.11 2.06c0 .55-.45 1-1 1h-5c-1.92 0-3.26.66-3.99 1.96-.56.98-.57 1.97-.57 1.98v10.65l3.36-3.36a.996.996 0 0 1 1.41 0c.39.39.39 1.03 0 1.42l-3.93 3.93c-.49.49-1.13.73-1.78.73-.64 0-1.29-.24-1.78-.73l-3.92-3.93a.99.99 0 0 1 0-1.42.996.996 0 0 1 1.41 0l3.23 3.23V7c0-.15.02-1.54.82-2.96.77-1.36 2.38-2.98 5.74-2.98h5c.55 0 1 .45 1 1z"/></svg>