<svg xmlns="http://www.w3.org/2000/svg" viewBox="11.9 9.9 591.2 560.1"><path style="fill:#5462bd;" d="M11.9 525.8h.7c0-.6.1-1 .3-1.6l-1 1.6zm588.6-1.6c.1.6.3 1 .3 1.6h.7l-1-1.6zm-13.7-20.7c-6-4.6-13.6-7.2-21.7-7.2h-18.7l-19.6-59H86.7l-19.6 59H48.4c-8.1 0-15.6 2.7-21.7 7.2l32.4-78c-1.9-3.2-2.9-6.9-2.9-10.9v-51h29.5v44.2h442.2v-44.2h29.5v51c0 4-1 7.7-2.9 10.9l32.3 78zM534.9 9.9H78.6c-12.4 0-22.4 10-22.4 22.4v110.3h29.5V98.3h442.2v44.2h29.5V32.3c-.1-12.4-10.1-22.4-22.5-22.4zm-7.1 58.9H85.6V39.4h442.2v29.4zM13 524.2l13.7-20.6c-6.6 4.9-11.7 12.2-13.7 20.6zm573.8-20.7l13.7 20.6c-2-8.3-7.1-15.6-13.7-20.6z"/><path style="fill:#5462bd;" d="M600.8 525.8c0-.6-.1-1-.3-1.6l-13.7-20.6c-6-4.6-13.6-7.2-21.7-7.2H48.4c-8.1 0-15.6 2.7-21.7 7.2L13 524.2c-.1.6-.3 1-.3 1.6-.4 2.4-.7 4.7-.7 7.1v.6c0 20.2 16.4 36.6 36.4 36.6h516.8c20 0 36.4-16.4 36.4-36.6v-.6c0-2.4-.3-4.8-.8-7.1zm-35.7 14.7H48.4c-3.8 0-6.9-3.1-6.9-7.7 0-4 3.1-7.1 6.9-7.1h516.8c3.8 0 6.9 3.1 6.9 7.7 0 4-3.1 7.1-7 7.1zm-417.9-207c-7.8 0-15.3-3.5-20.4-10-.6-.8-1.2-1.7-1.7-2.6l-24-48.6-24 48.6c-.5.9-1 1.8-1.7 2.6-7 8.9-18.5 12.2-29.1 8.5-10.3-3.6-17.2-12.8-17.6-23.7L12.1 188.8c-1.1-8.1 4.5-15.5 12.6-16.6 8.1-1.2 15.5 4.5 16.6 12.6l15.4 110.9 20.3-41c4.6-9.3 13.9-15.1 24.2-15.1 10.3 0 19.6 5.8 24.2 15.1l20.3 41 15.4-110.9c1.1-8.1 8.6-13.8 16.6-12.6 8.1 1.1 13.7 8.6 12.6 16.6l-16.6 119.5c-.5 10.9-7.3 20.1-17.6 23.7-3 1-6 1.5-8.9 1.5zm117.3 0c-2.9 0-5.9-.5-8.7-1.5-10.3-3.6-17.2-12.8-17.6-23.7l-16.6-119.5c-1.1-8.1 4.5-15.5 12.6-16.6 8-1.2 15.5 4.5 16.6 12.6l15.4 110.9 20.3-41c4.6-9.3 13.8-15 24.2-15.1 10.3 0 19.6 5.8 24.2 15.1l20.3 40.9 15.4-110.9c1.1-8.1 8.6-13.7 16.6-12.6 8.1 1.1 13.7 8.6 12.6 16.6L383 308.3c-.5 10.9-7.3 20.1-17.6 23.7-10.7 3.7-22.1.4-29.1-8.5-.6-.8-1.2-1.7-1.7-2.6l-24-48.6-24 48.6c-.5.9-1 1.8-1.7 2.6-5.2 6.4-12.6 10-20.4 10zm295.5 0c-7.8 0-15.3-3.5-20.4-10-.6-.8-1.2-1.7-1.7-2.6l-24-48.6-24 48.6c-.5.9-1 1.8-1.7 2.6-7 8.9-18.5 12.2-29.1 8.5-10.3-3.6-17.2-12.8-17.6-23.7l-16.6-119.5c-1.1-8.1 4.5-15.5 12.6-16.6 8-1.2 15.5 4.5 16.6 12.6l15.4 110.9 20.3-40.9c4.6-9.3 13.9-15.1 24.2-15.1 10.3 0 19.6 5.8 24.2 15.1l20.3 41 15.4-110.9c1.1-8.1 8.7-13.8 16.6-12.6 8.1 1.1 13.7 8.6 12.6 16.6l-16.6 119.5c-.5 10.9-7.3 20.1-17.6 23.7-3.1.9-6 1.4-8.9 1.4z"/></svg>