<svg xmlns="http://www.w3.org/2000/svg" viewBox="-263.4 377.7 41.4 40.3"><path style="fill:#5462bd;" d="M-245.7 403l-.9-.3c.3-.1.6 0 .9.3z"/><path style="fill:#5462bd;" d="M-222.4 393.3v-.8c-.5-7.8-3.9-13.8-8.4-14.7-.4-.1-.7-.1-1.1-.1-2.3 0-4.4 1.3-6 3.6-4.7 1.8-8.4 2.6-13.4 3.6-2.6.5-4.8 2-6.3 3.9-.1 0-.2-.1-.4-.1-2.8 0-4.5 2.1-4.5 5.5s1.7 5.5 4.4 5.5c.4.7 1 1.2 1.6 1.7-.1.2 0 .5.1.7 0 .1 3.5 6.8 4.2 13.1.1 1.2 1.1 2.4 2.5 2.4h3.8c1.6 0 2.5-1.5 2.5-3 0-2.3-.4-6.3-1.3-9.4 2 .6 4.1 1.2 6 1.8h.3c.2 0 .4 0 .5-.1 1.6 2.3 3.7 3.6 6 3.6.4 0 .7 0 1.1-.1 4.5-.9 7.9-6.9 8.4-14.7v-2.4zm-37 3c.1.4.2.8.3 1.1-1.1-.6-1.3-2-1.3-3.2 0-1.4.3-2.9 1.7-3.4-.8 1.7-1 3.6-.7 5.5zm13.5 19.4h-3.8c-.2 0-.5-.3-.5-.6-.5-4.7-2.4-9.6-3.5-12.1.6.2 1.2.4 1.9.5.6.1 2.4.6 4.7 1.2 1 2.5 1.7 7.1 1.6 10 0 .5-.2 1-.4 1zm.2-12.7l-.9-.3c-2.2-.6-4.1-1.1-4.8-1.2-3.4-.7-5.4-2.6-6-5.6-.8-4.2 2.1-8.3 6.5-9.1 4.3-.8 7.6-1.6 11.5-2.9-1.3 2.8-2 6.3-2 10.2 0 4.1.8 7.9 2.2 10.7-2.1-.6-4.4-1.3-6.5-1.8zm6.3-8.8c0-6.4 2.3-12 5.3-13.8-2 2.9-3.3 7.9-3.3 13.8s1.3 11 3.3 13.8c-3-1.8-5.3-7.4-5.3-13.8zm4.2-4.1c.2.1.4.2.6.2 2.4 0 4.4 2 4.4 4.4s-2 4.4-4.4 4.4c-.2 0-.3 0-.5.1-.2-1.5-.3-3.2-.3-5 0-1.5.1-2.9.2-4.1zm10.8 4.9c-.2 6.8-2.9 12.4-6.3 13.5-1.6-.7-3.1-3.4-4-7.4h.1c3.5 0 6.4-2.9 6.4-6.4 0-3.5-2.9-6.4-6.4-6.4-.1 0-.2 0-.3.1.8-4.5 2.5-7.7 4.2-8.5 3.4 1.1 6.1 6.8 6.3 13.5v1.6z"/></svg>