<svg xmlns="http://www.w3.org/2000/svg" viewBox="0 0 29 37.58"><path style="fill:#5462bd;" d="M29 5.09v22.98c0 .83-.68 1.51-1.51 1.51h-7.42a5.08 5.08 0 0 0-2.07 4.1v1.9h-2v-1.9c0-2.24 1.08-4.38 2.88-5.71.35-.25.76-.39 1.19-.39H27v-22h-9.5c-.7 0-1.35-.37-1.71-.97L14.5 2.47l-1.29 2.14c-.36.6-1.01.97-1.71.97H2v22h6.9c.42 0 .84.14 1.18.39A7.12 7.12 0 0 1 13 33.71v1.87h-2v-1.87c0-1.7-.83-3.2-2.1-4.13H1.51C.68 29.58 0 28.9 0 28.07V5.09c0-.83.68-1.51 1.51-1.51h9.99L13.21.73C13.5.24 14 0 14.5 0s1 .24 1.29.73l1.71 2.85h9.99c.83 0 1.51.68 1.51 1.51zm0 31.49c0 .55-.45 1-1 1H1c-.55 0-1-.45-1-1s.45-1 1-1h27c.55 0 1 .45 1 1z"/><path style="fill:#5462bd;" d="M14.59 8c-4.96 0-9 4.03-9 9 0 4.96 4.04 9 9 9 4.97 0 9-4.04 9-9a9 9 0 0 0-9-9zm1.01 15.92c-.33.06-.67.08-1.01.08-.34 0-.67-.02-.99-.08-3.39-.48-6.01-3.4-6.01-6.92s2.62-6.44 6.01-6.92c.32-.06.65-.08.99-.08.34 0 .68.02 1.01.08 3.38.48 5.99 3.4 5.99 6.92s-2.61 6.44-5.99 6.92z"/><path style="fill:#5462bd;" d="M17.45 20.71c-.2.39-.52.7-.98.91-.26.13-.55.21-.88.26.01.02.01.04.01.06v1.98c-.33.06-.67.08-1.01.08-.34 0-.67-.02-.99-.08v-1.98c0-.05 0-.1.01-.14-.22-.05-.42-.11-.61-.2-.51-.23-.85-.55-1.04-.94-.19-.4-.36-.93-.36-1.72h2.14c0 1.23.43 1.31.88 1.31.2 0 .34-.05.42-.16.07-.1.11-.32.11-.65 0-.46-.05-.74-.15-.86-.4-.44-1.03-.91-1.69-1.29-.82-.48-1.26-.65-1.44-1.04-.18-.4-.27-.86-.27-1.4 0-.77.09-1.33.29-1.69.19-.37.52-.65.98-.84.24-.1.46-.2.74-.26-.01-.02-.01-.05-.01-.07v-1.91c.32-.06.65-.08.99-.08.34 0 .68.02 1.01.08v1.91c0 .04 0 .08-.01.11.16.05.31.1.46.16.43.16.83.36 1.06.62.23.26.37.51.42.74.05.22.07.58.07 1.06v.26h-2.15l.01-.23c0-1.12-.43-.99-.86-.99-.15 0-.27.05-.35.16s-.12.27-.12.49c0 .29.02.5.06.64.04.14.16.29.36.45.19.17.3.28.91.6.81.41 1.64.92 1.9 1.29.25.36.24.89.24 1.58 0 .42.04 1.38-.15 1.78z"/></svg>