<svg xmlns="http://www.w3.org/2000/svg" viewBox="16.3 345.6 612 497.6"><path style="fill:#5462bd;" d="M597.4 347.6c9.7 4.8 17.4 9.9 22.9 19.5 4.7 8.3 7.9 16.5 8 26.2.1 4.3 1.7 108.4-.6 123-1.5 9.6-3.8 20.2-7.8 29.1-4.4 9.8-9.1 20.5-16.5 28.4-2.3 2.5-216.2 216.3-241.8 242-4.2 4.2-27.6 23.9-35.2 25.6-8.2 1.9-16 2.3-24.1.3-12.6-3.1-21.8-10.7-30.7-19.6l-12-12c-1.1-1.1-4.9-6.3-6.5-6.5-1.5-.1-4.9 2.8-6.2 3.5-4.6 2.6-29.6 16.8-37.4 21.2-8.7 4.9-17 6.3-26.8 6.3-5.9 0-10.1-.2-15.8-2.2-6.6-2.3-11.1-7-15.9-11.8-3.6-3.6-6.9-7.6-9.5-12.1-6.3-10.9-103.1-178.1-111.6-192.8-6.5-11.2-14.6-22.9-13.5-36.3.5-6.1 1.7-12.6 3.7-18.4 3.3-9.2 10.6-14.8 17.6-21 2.4-2.1 4.8-3.5 7.5-5.1 10.2-5.9 255.2-147.8 261-150.8 8.7-4.5 22.9.3 23.5 11.2.4 8.1-2.2 12.7-9.4 17-23.3 13.8-238 137.2-261.7 152.2-6.2 3.9-10.7 8-9.9 15.9.4 3.7 122.4 216.3 124.5 218 3.7 3 9.1 4.7 13.9 3.3 2.4-.7 5.4-3.4 7.9-4.8 4.1-2.3 26.3-14.7 33.2-18.6-15.9-16.2-31.8-32.4-47.8-48.6-9.8-10-19.7-20-29.5-30-2.4-2.5-4.8-5.1-7.3-7.5-5.7-5.4-9.1-12.4-12.7-19.4-2-3.9-2.6-10.8-2.8-15.2-.2-6.2 1.4-12.7 4-18.2 3.1-6.5 6-12.3 11-17.5 2.8-2.9 5.8-5.7 8.7-8.6 14.9-14.9 210.7-209.4 227.5-226.1 4.2-4.2 8.5-8.4 12.7-12.6 8.4-8.3 18.4-13.3 28.9-18.6 15.6-7.9 31.2-10.4 48.5-10.4 12.8 0 85.4.4 108.9 0 6.2.1 13.3-.9 19.1 2zm-3 161.8V407.7C595 380 588 377 572.7 377H463.9c-15.6 0-35.7 6.6-46.8 18.1C415.3 397 198.5 614 169.4 643c-3.4 3.4-6.6 7.2-7.6 12-1.5 7 3.1 13.1 7.9 17.8 15.2 15.2 133.9 134.6 135.5 135.4 12.5 10.4 25.6-9.2 32.2-15.9 14.4-14.5 213.9-214.1 237.5-239 4.4-4.6 9.3-10 11.7-16 3.6-8.7 7.9-18.3 7.8-27.9z"/><path style="fill:#5462bd;" d="M503.5 414.2c-28.6 0-51.8 23.3-51.8 51.8 0 28.6 23.3 51.8 51.8 51.8s51.8-23.3 51.8-51.8c0-28.6-23.2-51.8-51.8-51.8zm0 76.1c-13.4 0-24.3-10.9-24.3-24.3s10.9-24.3 24.3-24.3 24.3 10.9 24.3 24.3-10.9 24.3-24.3 24.3z"/></svg>