<svg xmlns="http://www.w3.org/2000/svg" viewBox="0 0 39.029 37.326"><path style="fill:#5462bd;" d="M35.524 18.806v9.82c0 .99-.58 1.89-1.49 2.29l-14.93 6.21c-.3.13-.64.2-.99.2-.49 0-.96-.14-1.37-.41l-12.1-7.96a2.475 2.475 0 0 1-1.13-2.09v-9.89l2 1.29v8.6c0 .17.09.32.23.42l11.8 7.76.3.2c.13.09.31.11.47.04l.23-.1 1-.41 13.7-5.7a.48.48 0 0 0 .28-.45v-8.98l2-.84zm-.58-12.72a1.01 1.01 0 0 0-.8-.01l-2.13.88-9.47-4.31-1-.45-.32-.15a.533.533 0 0 0-.37-.03l-.31.1-13.56 4.17-1.95-1.15a.991.991 0 0 0-.75-.11l15.97-4.92c.57-.17 1.24-.14 1.8.12l12.89 5.86zm-15.4 13.21v15.48l-1 .41-.23.1c-.16.07-.34.05-.47-.04l-.3-.2v-18.37l.36-.65.64 1.28 1 1.99z"/><path style="fill:#5462bd;" d="M38.824 14.676l-3.37-8.06c-.01-.01-.01-.03-.02-.04a.746.746 0 0 0-.07-.12c-.02-.04-.05-.07-.08-.11-.05-.06-.1-.1-.16-.15-.04-.03-.09-.05-.13-.07-.02-.01-.03-.03-.05-.04a1.01 1.01 0 0 0-.8-.01l-2.13.88-9.47 3.94-1 .42-1 .41-2.5 1.04-11.06-6.48-1.95-1.15a.991.991 0 0 0-.75-.11c-.01 0-.03.01-.04.01-.07.02-.14.05-.2.09-.05.03-.11.06-.15.1-.06.04-.1.09-.15.15a.99.99 0 0 0-.11.17l-.07.13v.02l-3.28 6.49c-.6 1.14-.22 2.58.87 3.28l2.36 1.51 2 1.29 5.96 3.82a2.495 2.495 0 0 0 3.54-.89l2.53-4.52.36-.65.64 1.28 1 1.99 1.53 3.05a2.476 2.476 0 0 0 3.2 1.18l9.25-3.88 2-.84 1.97-.83c.62-.26 1.1-.75 1.35-1.38.26-.63.24-1.31-.02-1.92zm-25.55 5.55c-.18.32-.51.31-.72.18l-7.04-4.52-2-1.28-1.28-.82a.508.508 0 0 1-.17-.68l1.45-2.87 1.43-2.84.57.33 11.09 6.52-3.33 5.98zm5.27-5.14l-.05-.11.05-.09v.2zm18.45.77a.53.53 0 0 1-.28.28l-1.19.5-2 .84-10.02 4.21c-.24.1-.53-.01-.65-.24l-3.31-6.6-.22-.44.22-.09 13.98-5.81.47-.2 1.53 3.66 1.46 3.5c.08.17.04.31.01.39z"/><path style="fill:#5462bd;" d="M22.544 2.646v8.25l-1 .42-1 .41v-9.61l.31-.1c.12-.03.24-.03.37.03l.32.15 1 .45z"/></svg>