<svg xmlns="http://www.w3.org/2000/svg" viewBox="0 0 40 39"><path style="fill:#5462bd;" d="M18 22.5V37h-2V23H9v14H7V22.5c0-.83.67-1.5 1.5-1.5h8c.83 0 1.5.67 1.5 1.5zm-5.14-6.51V16h.06c-.02 0-.04 0-.06-.01zm14.22.01h.06v-.01c-.02.01-.04.01-.06.01zm0 0h.06v-.01c-.02.01-.04.01-.06.01zm-14.22-.01V16h.06c-.02 0-.04 0-.06-.01zm14.22.01h.06v-.01c-.02.01-.04.01-.06.01zm-14.22-.01V16h.06c-.02 0-.04 0-.06-.01zm-9.39-1.03v.22h.01c-.01-.07-.01-.15-.01-.22z"/><path style="fill:#5462bd;" d="M37 18v19.23c0 .98-.74 1.77-1.65 1.77H4.65C3.74 39 3 38.21 3 37.23V18c.59.4 1.26.68 2 .84V37h30V18.84c.74-.16 1.41-.44 2-.84zM3.48 15.18h-.01v-.22c0 .07 0 .15.01.22z"/><path style="fill:#5462bd;" d="M23 33h12v2H22.41c-.78 0-1.41-.72-1.41-1.61V22.61c0-.89.63-1.61 1.41-1.61H35v2H23v10z"/><path style="fill:#5462bd;" d="M35 27v2h-5v4h-2v-4h-5v-2h5v-4h2v4M3.47 14.96c0 .07 0 .15.01.22h-.01v-.22zM14.08 14h-.01v-.03c0 .01 0 .02.01.03zm11.85-.03V14h-.01c.01-.01.01-.02.01-.03z"/><path style="fill:#5462bd;" d="M12.86 15.99V16h.06c-.02 0-.04 0-.06-.01zm1.21-2.02V14h.01c-.01-.01-.01-.02-.01-.03zm11.85.03h.01v-.03c0 .01 0 .02-.01.03zm1.16 2h.06v-.01c-.02.01-.04.01-.06.01zm-13.01-2.03V14h.01c-.01-.01-.01-.02-.01-.03zm11.85.03h.01v-.03c0 .01 0 .02-.01.03z"/><path style="fill:#5462bd;" d="M37.3 1.69A2.51 2.51 0 0 0 34.93 0H5.07C4 0 3.05.68 2.7 1.69 1.47 5.21 0 9.77 0 11.51c0 2.95 1.13 5.26 3 6.49.59.4 1.26.68 2 .84.47.11.96.16 1.48.16a7.44 7.44 0 0 0 5.99-3c.03-.03.05-.06.08-.1.05-.06.09-.13.14-.2.05.1.11.2.17.29.02.01.04.01.06.01h-.06c1.06 1.75 2.82 3 7.14 3s6.08-1.25 7.14-3h-.06c.02 0 .04 0 .06-.01.06-.09.12-.19.17-.29.05.07.09.14.14.2.03.04.05.07.08.1 1.38 1.86 3.59 3 5.99 3 .52 0 1.01-.05 1.48-.16.74-.16 1.41-.44 2-.84 1.87-1.23 3-3.54 3-6.49 0-1.74-1.47-6.3-2.7-9.82zM12.12 13.06c-.26.1-.47.29-.58.56-.05.13-.11.26-.18.38-.4.81-1 1.5-1.72 2-.9.64-2 1-3.16 1-.55 0-1.05-.08-1.48-.23-.87-.28-1.53-.83-2-1.52-.7-1.04-1-2.41-1-3.74 0-1.09.99-4.6 2.58-9.16.08-.21.27-.35.49-.35h7.85l-.8 11.06zm13.81.94h-.01c-.33.78-.69 1.48-1.4 2-.83.62-2.16 1-4.52 1s-3.69-.38-4.52-1c-.71-.52-1.07-1.22-1.4-2h-.01v-.03L14.93 2h10.14l.86 11.97V14zM37 15.25c-.47.69-1.13 1.24-2 1.52-.43.15-.93.23-1.48.23-1.16 0-2.26-.36-3.16-1-.72-.5-1.32-1.19-1.72-2a2.64 2.64 0 0 1-.18-.38.999.999 0 0 0-.58-.56L27.08 2h7.85c.22 0 .41.14.49.35C37.01 6.91 38 10.42 38 11.51c0 1.33-.3 2.7-1 3.74zM15 29v2c0 .55-.45 1-1 1s-1-.45-1-1v-2c0-.55.45-1 1-1s1 .45 1 1z"/></svg>