<svg xmlns="http://www.w3.org/2000/svg" viewBox="-21.5 29.4 605.9 705.7"><path style="fill:#5462bd;" d="M582.3 639.2c-5.4-30.8-18.1-59.8-36.2-83.3-10.4-15.6-27.5-27.9-46.5-33.7 3.5-12.4-.5-28.6-12.1-41.8-12.7-16.3-29-25.3-45.3-25.3h-3.6l-74-93.4L466 232.3c32.6 0 63.4-14.5 83.3-39.8 34.4-43.5 25.3-106.8-18.1-141.2-18.1-14.5-39.8-21.7-61.6-21.7-30.8 0-59.8 14.5-77.9 38-19.9 27.2-27.2 59.8-18.1 90.5l-82.3 106.8-1.3-1.7L129 51.3c-18.1-25.3-56.1-29-83.3-9.1C33 53.1 24 65.7 22.2 82c-3.6 16.3 0 30.8 10.9 43.5l182.3 234.2-93.6 120.1c-7.2-1.8-14.5-1.8-19.9-1.8-38 0-74.2 18.1-97.8 47.1-30.8 39.8-34.4 97.8-7.2 141.2 3.6 5.4 9.1 9.1 14.5 9.1s10.9-1.8 14.5-7.2l72.4-92.3L111 585l-74.2 96c-5.4 3.6-7.2 9.1-5.4 14.5 0 3.6 3.6 9.1 7.2 10.9 18.1 10.9 39.8 16.3 61.6 16.3 38 0 74.2-18.1 97.8-47.1 27.2-36.2 32.6-83.3 16.3-121.3l75.3-96.4.7 1 52.5 70.6c-7.2 16.3-3.6 36.2 10.9 54.3 10.6 14.1 24.6 21.3 38.7 23.4.9 19.4 8.1 44 21.6 57.5 13.8 12 29.2 11 46.2 10.9 17.7.1 33.7 3.8 47.9 12.7 12.7 7.2 21.7 16.3 29 27.2 5.4 9.1 14.5 25.3 27.2 18.1 10.9-5.4 16.3-32.6 18.1-43.5 3.5-16.5 1.7-34.7-.1-50.9zM408.1 172.5c3.6-5.4 3.6-12.7 1.8-18.1-9.1-19.9-5.4-45.3 9.1-63.4 12.7-16.3 30.8-25.3 50.7-25.3 14.5 0 29 5.4 39.8 16.3 27.2 21.7 32.6 61.6 10.9 90.5-14.5 18.1-36.2 27.2-59.8 23.5-5.4 0-12.7 1.8-16.3 7.2L342.8 332.8l-2-2.7-27.7-36.3 95-121.3zM168.8 653.6C152.5 675.4 127.2 688 100 688c-7.2 0-16.3-1.8-23.5-3.6l72.4-92.3c5.4-7.2 5.4-19.9-3.6-25.3l-39.8-32.6c-7.2-5.4-19.9-5.4-25.3 3.6l-63.4 81.5c-5.4-25.3 0-52.5 16.3-74.2 16.3-21.7 41.6-32.6 67-34.4h1.8c5.4 0 10.9 0 16.3 1.8 12.7 1.8 25.3 9.1 36.2 16.3 10.9 9.1 19.9 19.9 25.3 32.6 3.6 7.2 5.4 12.7 7.2 19.9 3.7 25.3-1.8 50.6-18.1 72.3zm25.4-132.1c-5.4-7.2-10.9-12.7-18.1-18.1-5.4-3.6-10.9-9.1-18.1-10.9h-1.8l81-103.9 2.3 3.1 27.4 35.9-72.7 93.9zm170.2-21.2l-56.1-72.4-10.9-14.5-10.9-14.5-29-38-10.9-14.5-10.9-14.5L60.2 103.8c-3.6-5.4-5.4-10.9-3.6-16.3C58.4 82 62 76.6 67.4 71.2c5.4-3.6 10.9-5.4 16.3-5.4 7.2 0 12.7 3.6 16.3 7.2l170.2 220.9 10.9 14.5 10.9 14.5 29 38 10.9 14.5 10.9 14.5 63.4 83.3h-1.8l-38 29-2-1.9zm9 45.3l5.4-3.6 27.2-21.7 29-21.7 5.4-3.6s12.7 1.8 18.1 9.1c7.2 5.4 7.2 16.3 7.2 16.3l-7.2 5.4-23.5 18-3.6 3.6-29 19.9-7.2 5.4c-3.6 0-9.1-1.8-16.3-9.1-3.6-3.6-7.3-14.4-5.5-18zm174.5 124.3c-30.8-30.8-68.8-34.4-110.4-34.4-7.9-12.6-13-29.3-9.4-44.2 2.1-1.4 3.4-2.3 3.4-2.3l39.8-30.8 5.1-3.8c48.4 5.4 75 72.1 71.5 115.5z"/><circle style="fill:#5462bd;" cx="473" cy="127.3" r="36.2"/></svg>