<?xml version="1.0" encoding="utf-8"?>
<!-- Generator: Adobe Illustrator 21.0.0, SVG Export Plug-In . SVG Version: 6.00 Build 0)  -->
<svg version="1.1" id="Layer_1" xmlns="http://www.w3.org/2000/svg" xmlns:xlink="http://www.w3.org/1999/xlink" x="0px" y="0px"
	 viewBox="0 0 484 482" style="enable-background:new 0 0 484 482;" xml:space="preserve">
<style type="text/css">
	.st0{fill:none;stroke:#5a5a5a;stroke-width:16;stroke-miterlimit:10;}
	.st1{enable-background:new    ;}
</style>
<rect x="81.3" y="80" transform="matrix(0.7071 -0.7071 0.7071 0.7071 -99.5776 242.2585)" class="st0" width="322.7" height="322.7"/>
<g class="st1">
	<path style="fill:#5a5a5a" d="M168.6,228v-73.4h34.3c3.9,0,7.4,0.6,10.5,1.9c3.2,1.3,5.8,3,7.8,5.1c2,2.1,3.6,4.6,4.7,7.5c1.1,2.8,1.6,5.9,1.6,9.2
		c0,3.2-0.5,6.2-1.6,9.1c-1.1,2.8-2.7,5.3-4.7,7.5c-2,2.2-4.6,3.9-7.8,5.1c-3.1,1.3-6.6,1.9-10.5,1.9h-18.6V228H168.6z M184.2,188.1
		h16.5c3.2,0,5.8-0.9,7.8-2.7c2.1-1.8,3.1-4.2,3.1-7.1c0-3-1-5.4-3.1-7.2c-2.1-1.8-4.7-2.7-7.8-2.7h-16.5V188.1z"/>
</g>
<g class="st1">
	<path style="fill:#5a5a5a" d="M261.9,339.7v-73.4h38.5c3.4,0,6.4,0.5,9.1,1.5c2.7,1,5,2.4,6.6,4.2c1.7,1.8,3,3.7,3.9,6s1.4,4.6,1.4,7
		c0,4.4-1.2,8.1-3.6,11.1c-2.4,3-5.4,4.9-9,5.7c3.9,0.6,7.3,2.6,10,6s4,7.4,4,11.9c0,5.8-1.9,10.6-5.6,14.3c-3.7,3.7-9,5.6-15.7,5.6
		H261.9z M277.5,295.5h19.6c2.6,0,4.7-0.7,6.2-2.1c1.5-1.4,2.3-3.3,2.3-5.6c0-2.3-0.8-4.1-2.3-5.6c-1.5-1.4-3.6-2.1-6.2-2.1h-19.6
		V295.5z M277.5,325.9h20.2c2.9,0,5.2-0.7,6.9-2.2c1.6-1.5,2.5-3.5,2.5-6.2c0-2.4-0.8-4.4-2.5-6c-1.6-1.6-3.9-2.4-6.9-2.4h-20.2
		V325.9z"/>
</g>
<line class="st0" x1="272.5" y1="207.5" x2="202.5" y2="277.5"/>
</svg>
